<svg xmlns="http://www.w3.org/2000/svg" width="279.63" height="152.89" viewBox="0 0 279.63 152.89"><defs><style>.cls-1{fill:#21f4a7;}.cls-2{fill:#fff;}</style></defs><title>titulo</title><g id="Layer_2" data-name="Layer 2"><g id="Layer_1-2" data-name="Layer 1"><path class="cls-1" d="M9.44,31.65a16.23,16.23,0,0,1,.4,4,17.07,17.07,0,0,1-.4,4,16.32,16.32,0,0,1,.4,4,17,17,0,0,1-.4,3.95H25.27a17,17,0,0,1,.39,4,17.59,17.59,0,0,1-.39,4H1.53a17.59,17.59,0,0,1-.39-4,17,17,0,0,1,.39-4,17.65,17.65,0,0,1-.39-3.95,16.89,16.89,0,0,1,.39-4,17.68,17.68,0,0,1-.39-4,16.8,16.8,0,0,1,.39-4,17.68,17.68,0,0,1-.39-4,16.8,16.8,0,0,1,.39-4,17.68,17.68,0,0,1-.39-4,17,17,0,0,1,.39-4,17.59,17.59,0,0,1-.39-4,17,17,0,0,1,.39-4A17.65,17.65,0,0,1,1.14,4a16.89,16.89,0,0,1,.39-4H25.27a16.89,16.89,0,0,1,.39,4,17.65,17.65,0,0,1-.39,4H9.44a16.38,16.38,0,0,1,.4,4,17,17,0,0,1-.4,4,16.38,16.38,0,0,1,.4,4,17.07,17.07,0,0,1-.4,4H25.27a16.8,16.8,0,0,1,.39,4,17.68,17.68,0,0,1-.39,4Z"/><path class="cls-1" d="M69.18,11.87a17,17,0,0,1-.4,4,16.38,16.38,0,0,1,.4,4,17.07,17.07,0,0,1-.4,4,16.23,16.23,0,0,1,.4,4,17.07,17.07,0,0,1-.4,4,16.23,16.23,0,0,1,.4,4,17.07,17.07,0,0,1-.4,4,16.32,16.32,0,0,1,.4,4,17,17,0,0,1-.4,3.95,16.38,16.38,0,0,1,.4,4,17,17,0,0,1-.4,4H60.87a17.59,17.59,0,0,1-.39-4,17,17,0,0,1,.39-4H55.93a17,17,0,0,1-.4-3.95,16.32,16.32,0,0,1,.4-4H53a17.64,17.64,0,0,1-.4-4,16.74,16.74,0,0,1,.4-4H49a17.68,17.68,0,0,1-.39-4,16.8,16.8,0,0,1,.39-4h-4a16.8,16.8,0,0,1,.39,4,17.68,17.68,0,0,1-.39,4,16.8,16.8,0,0,1,.39,4,17.68,17.68,0,0,1-.39,4,16.89,16.89,0,0,1,.39,4,17.65,17.65,0,0,1-.39,3.95,17,17,0,0,1,.39,4,17.59,17.59,0,0,1-.39,4H37.14a17,17,0,0,1-.4-4,16.38,16.38,0,0,1,.4-4,17,17,0,0,1-.4-3.95,16.32,16.32,0,0,1,.4-4,17.07,17.07,0,0,1-.4-4,16.23,16.23,0,0,1,.4-4,17.07,17.07,0,0,1-.4-4,16.23,16.23,0,0,1,.4-4,17.07,17.07,0,0,1-.4-4,16.38,16.38,0,0,1,.4-4,17,17,0,0,1-.4-4,16.38,16.38,0,0,1,.4-4A17,17,0,0,1,36.74,4a16.32,16.32,0,0,1,.4-4H47a16.89,16.89,0,0,1,.39,4,17.65,17.65,0,0,1-.39,4h3a16.38,16.38,0,0,1,.4,4,17,17,0,0,1-.4,4h3a16.9,16.9,0,0,1,.4,4,17.64,17.64,0,0,1-.4,4h4a16.8,16.8,0,0,1,.39,4,17.68,17.68,0,0,1-.39,4h3.95a17.68,17.68,0,0,1-.39-4,16.8,16.8,0,0,1,.39-4,17.68,17.68,0,0,1-.39-4,17,17,0,0,1,.39-4,17.59,17.59,0,0,1-.39-4,17,17,0,0,1,.39-4A17.65,17.65,0,0,1,60.48,4a16.89,16.89,0,0,1,.39-4h7.91a16.32,16.32,0,0,1,.4,4,17,17,0,0,1-.4,4A16.38,16.38,0,0,1,69.18,11.87Z"/><path class="cls-1" d="M108.74,35.6a17.07,17.07,0,0,1-.4,4,16.32,16.32,0,0,1,.4,4,17,17,0,0,1-.4,3.95h-4a17,17,0,0,1,.39,4,17.59,17.59,0,0,1-.39,4H80.65a17.59,17.59,0,0,1-.39-4,17,17,0,0,1,.39-4h-4a17,17,0,0,1-.4-3.95,16.32,16.32,0,0,1,.4-4h7.91a16.89,16.89,0,0,1,.39,4,17.65,17.65,0,0,1-.39,3.95h15.82a17.65,17.65,0,0,1-.39-3.95,16.89,16.89,0,0,1,.39-4,17.68,17.68,0,0,1-.39-4,16.8,16.8,0,0,1,.39-4H80.65a17.68,17.68,0,0,1-.39-4,16.8,16.8,0,0,1,.39-4h-4a17.07,17.07,0,0,1-.4-4,16.38,16.38,0,0,1,.4-4,17,17,0,0,1-.4-4,16.38,16.38,0,0,1,.4-4h4A17.65,17.65,0,0,1,80.26,4a16.89,16.89,0,0,1,.39-4h23.74a16.89,16.89,0,0,1,.39,4,17.65,17.65,0,0,1-.39,4h4a16.38,16.38,0,0,1,.4,4,17,17,0,0,1-.4,4h-7.91a17.59,17.59,0,0,1-.39-4,17,17,0,0,1,.39-4H84.61a17,17,0,0,1,.39,4,17.59,17.59,0,0,1-.39,4,17,17,0,0,1,.39,4,17.68,17.68,0,0,1-.39,4h19.78a16.8,16.8,0,0,1,.39,4,17.68,17.68,0,0,1-.39,4h4A16.23,16.23,0,0,1,108.74,35.6Z"/><path class="cls-1" d="M147.9,47.47a16.38,16.38,0,0,1,.4,4,17,17,0,0,1-.4,4H140a17.59,17.59,0,0,1-.39-4,17,17,0,0,1,.39-4,17.65,17.65,0,0,1-.39-3.95,16.89,16.89,0,0,1,.39-4H124.17a16.89,16.89,0,0,1,.39,4,17.65,17.65,0,0,1-.39,3.95,17,17,0,0,1,.39,4,17.59,17.59,0,0,1-.39,4h-7.91a17,17,0,0,1-.4-4,16.38,16.38,0,0,1,.4-4,17,17,0,0,1-.4-3.95,16.32,16.32,0,0,1,.4-4h3a17.68,17.68,0,0,1-.39-4,16.8,16.8,0,0,1,.39-4,17.68,17.68,0,0,1-.39-4,16.8,16.8,0,0,1,.39-4h2a17.68,17.68,0,0,1-.39-4,17,17,0,0,1,.39-4h3a17,17,0,0,1-.4-4,16.38,16.38,0,0,1,.4-4h2a17,17,0,0,1-.4-3.95,16.32,16.32,0,0,1,.4-4H138a16.32,16.32,0,0,1,.4,4,17,17,0,0,1-.4,4h2a16.9,16.9,0,0,1,.4,4,17.54,17.54,0,0,1-.4,4h3a17,17,0,0,1,.39,4,17.68,17.68,0,0,1-.39,4h2a16.8,16.8,0,0,1,.39,4,17.68,17.68,0,0,1-.39,4,16.8,16.8,0,0,1,.39,4,17.68,17.68,0,0,1-.39,4h3a16.32,16.32,0,0,1,.4,4A17,17,0,0,1,147.9,47.47ZM136.63,27.69a16.23,16.23,0,0,1,.4-4h-2a17.07,17.07,0,0,1-.4-4,16.38,16.38,0,0,1,.4-4h-5.94a16.38,16.38,0,0,1,.4,4,17.07,17.07,0,0,1-.4,4h-2a16.8,16.8,0,0,1,.39,4,17.68,17.68,0,0,1-.39,4H137A17.07,17.07,0,0,1,136.63,27.69Z"/><path class="cls-1" d="M187.46,7.91a16.38,16.38,0,0,1,.4,4,17,17,0,0,1-.4,4h-4a17,17,0,0,1,.39,4,17.68,17.68,0,0,1-.39,4h-4a16.74,16.74,0,0,1,.4,4,17.64,17.64,0,0,1-.4,4h-4a16.8,16.8,0,0,1,.39,4,17.68,17.68,0,0,1-.39,4,16.89,16.89,0,0,1,.39,4,17.65,17.65,0,0,1-.39,3.95,17,17,0,0,1,.39,4,17.59,17.59,0,0,1-.39,4h-7.92a17.59,17.59,0,0,1-.39-4,17,17,0,0,1,.39-4,17.65,17.65,0,0,1-.39-3.95,16.89,16.89,0,0,1,.39-4,17.68,17.68,0,0,1-.39-4,16.8,16.8,0,0,1,.39-4h-4a17.07,17.07,0,0,1-.4-4,16.23,16.23,0,0,1,.4-4h-4a17.68,17.68,0,0,1-.39-4,17,17,0,0,1,.39-4h-4a17,17,0,0,1-.4-4,16.38,16.38,0,0,1,.4-4,17,17,0,0,1-.4-3.95,16.32,16.32,0,0,1,.4-4h7.91a16.89,16.89,0,0,1,.39,4,17.65,17.65,0,0,1-.39,4,17,17,0,0,1,.39,4,17.59,17.59,0,0,1-.39,4h4a16.38,16.38,0,0,1,.4,4,17.07,17.07,0,0,1-.4,4h7.92a17.07,17.07,0,0,1-.4-4,16.38,16.38,0,0,1,.4-4h4a17.59,17.59,0,0,1-.39-4,17,17,0,0,1,.39-4A17.65,17.65,0,0,1,179.16,4a16.89,16.89,0,0,1,.39-4h7.91a16.32,16.32,0,0,1,.4,4A17,17,0,0,1,187.46,7.91Z"/><path class="cls-1" d="M227.42,27.69a17.07,17.07,0,0,1-.4,4,16.23,16.23,0,0,1,.4,4,17.07,17.07,0,0,1-.4,4h-3a16.89,16.89,0,0,1,.39,4,17.65,17.65,0,0,1-.39,3.95h-4.95a16.9,16.9,0,0,1,.4,4,17.54,17.54,0,0,1-.4,4H203.29a17,17,0,0,1-.4-4,16.38,16.38,0,0,1,.4-4h-4.95a17.65,17.65,0,0,1-.39-3.95,16.89,16.89,0,0,1,.39-4h-3a17.07,17.07,0,0,1-.4-4,16.23,16.23,0,0,1,.4-4,17.07,17.07,0,0,1-.4-4,16.23,16.23,0,0,1,.4-4,17.07,17.07,0,0,1-.4-4,16.38,16.38,0,0,1,.4-4h3a17.59,17.59,0,0,1-.39-4,17,17,0,0,1,.39-4h4.95a17,17,0,0,1-.4-3.95,16.32,16.32,0,0,1,.4-4h15.82a16.84,16.84,0,0,1,.4,4,17.61,17.61,0,0,1-.4,4h4.95a17,17,0,0,1,.39,4,17.59,17.59,0,0,1-.39,4h3a16.38,16.38,0,0,1,.4,4,17.07,17.07,0,0,1-.4,4A16.23,16.23,0,0,1,227.42,27.69Zm-8.7,7.91a16.8,16.8,0,0,1,.39-4,17.68,17.68,0,0,1-.39-4,16.8,16.8,0,0,1,.39-4,17.68,17.68,0,0,1-.39-4,17,17,0,0,1,.39-4h-3a17.59,17.59,0,0,1-.39-4,17,17,0,0,1,.39-4h-9.89a16.38,16.38,0,0,1,.4,4,17,17,0,0,1-.4,4h-3a17,17,0,0,1,.39,4,17.68,17.68,0,0,1-.39,4,16.8,16.8,0,0,1,.39,4,17.68,17.68,0,0,1-.39,4,16.8,16.8,0,0,1,.39,4,17.68,17.68,0,0,1-.39,4h3a16.32,16.32,0,0,1,.4,4,17,17,0,0,1-.4,3.95h9.89a17.65,17.65,0,0,1-.39-3.95,16.89,16.89,0,0,1,.39-4h3A17.68,17.68,0,0,1,218.72,35.6Z"/><path class="cls-2" d="M273.09,31.65h-4.95a16.74,16.74,0,0,1,.4,4,17.64,17.64,0,0,1-.4,4h3a16.89,16.89,0,0,1,.39,4,17.65,17.65,0,0,1-.39,3.95h2a17,17,0,0,1,.39,4,17.59,17.59,0,0,1-.39,4h-7.92a17.59,17.59,0,0,1-.39-4,17,17,0,0,1,.39-4,17.65,17.65,0,0,1-.39-3.95,16.89,16.89,0,0,1,.39-4h-3a16.89,16.89,0,0,1,.39,4,17.65,17.65,0,0,1-.39,3.95h-3a16.9,16.9,0,0,1,.4,4,17.54,17.54,0,0,1-.4,4H245.39a17.59,17.59,0,0,1-.39-4,17,17,0,0,1,.39-4h-3.95a17,17,0,0,1-.4-3.95,16.32,16.32,0,0,1,.4-4,17.07,17.07,0,0,1-.4-4,16.23,16.23,0,0,1,.4-4h3.95a17.68,17.68,0,0,1-.39-4,16.8,16.8,0,0,1,.39-4h4a17.07,17.07,0,0,1-.4-4,16.38,16.38,0,0,1,.4-4h-4a17.59,17.59,0,0,1-.39-4,17,17,0,0,1,.39-4h4A17,17,0,0,1,249,4a16.32,16.32,0,0,1,.4-4h11.87a16.89,16.89,0,0,1,.39,4,17.65,17.65,0,0,1-.39,4h3.95a16.38,16.38,0,0,1,.4,4,17,17,0,0,1-.4,4h-5.93a17.54,17.54,0,0,1-.4-4,16.9,16.9,0,0,1,.4-4h-7.91a17,17,0,0,1,.39,4,17.59,17.59,0,0,1-.39,4h7.91a16.9,16.9,0,0,1,.4,4,17.64,17.64,0,0,1-.4,4h3a16.8,16.8,0,0,1,.39,4,17.68,17.68,0,0,1-.39,4h4.94a17.68,17.68,0,0,1-.39-4,16.8,16.8,0,0,1,.39-4,17.68,17.68,0,0,1-.39-4,17,17,0,0,1,.39-4h5.94a17,17,0,0,1,.39,4,17.68,17.68,0,0,1-.39,4,16.8,16.8,0,0,1,.39,4A17.68,17.68,0,0,1,273.09,31.65Zm-13.85,7.91a17.64,17.64,0,0,1-.4-4,16.74,16.74,0,0,1,.4-4h-3a17.68,17.68,0,0,1-.39-4,16.8,16.8,0,0,1,.39-4h-3a16.8,16.8,0,0,1,.39,4,17.68,17.68,0,0,1-.39,4h-4a16.74,16.74,0,0,1,.4,4,17.64,17.64,0,0,1-.4,4,16.84,16.84,0,0,1,.4,4,17.61,17.61,0,0,1-.4,3.95h6.92a17.65,17.65,0,0,1-.39-3.95,16.89,16.89,0,0,1,.39-4Z"/><path class="cls-1" d="M12.44,117.34a25.25,25.25,0,0,1,.59,5.93,26.31,26.31,0,0,1-.59,5.92,25.25,25.25,0,0,1,.59,5.93,26.38,26.38,0,0,1-.59,5.92h23.7a25.25,25.25,0,0,1,.59,5.93,26.38,26.38,0,0,1-.59,5.92H.59A26.38,26.38,0,0,1,0,147,25.25,25.25,0,0,1,.59,141,26.38,26.38,0,0,1,0,135.12a25.25,25.25,0,0,1,.59-5.93A26.31,26.31,0,0,1,0,123.27a25.25,25.25,0,0,1,.59-5.93A26.31,26.31,0,0,1,0,111.42a25.16,25.16,0,0,1,.59-5.92A26.47,26.47,0,0,1,0,99.57a25.16,25.16,0,0,1,.59-5.92A26.47,26.47,0,0,1,0,87.72,25.16,25.16,0,0,1,.59,81.8,26.41,26.41,0,0,1,0,75.87,25.16,25.16,0,0,1,.59,70H36.14a25.16,25.16,0,0,1,.59,5.92,26.41,26.41,0,0,1-.59,5.93H12.44A25.16,25.16,0,0,1,13,87.72a26.47,26.47,0,0,1-.59,5.93A25.16,25.16,0,0,1,13,99.57a26.47,26.47,0,0,1-.59,5.93h23.7a25.16,25.16,0,0,1,.59,5.92,26.31,26.31,0,0,1-.59,5.92Z"/><path class="cls-1" d="M101.31,141a25.25,25.25,0,0,1,.59,5.93,26.38,26.38,0,0,1-.59,5.92H89.46a25.81,25.81,0,0,1-.59-5.92,24.73,24.73,0,0,1,.59-5.93H85a25.76,25.76,0,0,1-.6-5.92,24.67,24.67,0,0,1,.6-5.93H80.57a26.31,26.31,0,0,1-.59-5.92,25.25,25.25,0,0,1,.59-5.93H65.76a25.25,25.25,0,0,1,.59,5.93,26.31,26.31,0,0,1-.59,5.92,25.25,25.25,0,0,1,.59,5.93,26.38,26.38,0,0,1-.59,5.92,25.25,25.25,0,0,1,.59,5.93,26.38,26.38,0,0,1-.59,5.92H53.91a26.38,26.38,0,0,1-.59-5.92,25.25,25.25,0,0,1,.59-5.93,26.38,26.38,0,0,1-.59-5.92,25.25,25.25,0,0,1,.59-5.93,26.31,26.31,0,0,1-.59-5.92,25.25,25.25,0,0,1,.59-5.93,26.31,26.31,0,0,1-.59-5.92,25.16,25.16,0,0,1,.59-5.92,26.47,26.47,0,0,1-.59-5.93,25.16,25.16,0,0,1,.59-5.92,26.47,26.47,0,0,1-.59-5.93,25.16,25.16,0,0,1,.59-5.92,26.41,26.41,0,0,1-.59-5.93A25.16,25.16,0,0,1,53.91,70H95.38a24.58,24.58,0,0,1,.6,5.92,25.79,25.79,0,0,1-.6,5.93h5.93a25.16,25.16,0,0,1,.59,5.92,26.47,26.47,0,0,1-.59,5.93h-3a25.16,25.16,0,0,1,.59,5.92,26.47,26.47,0,0,1-.59,5.93H89.46a25.16,25.16,0,0,1,.59,5.92,26.31,26.31,0,0,1-.59,5.92h3a24.73,24.73,0,0,1,.59,5.93,25.75,25.75,0,0,1-.59,5.92h4.45a25.25,25.25,0,0,1,.59,5.93,26.38,26.38,0,0,1-.59,5.92ZM85.9,99.57a24.58,24.58,0,0,1,.6-5.92,25.86,25.86,0,0,1-.6-5.93,24.58,24.58,0,0,1,.6-5.92H65.76a25.16,25.16,0,0,1,.59,5.92,26.47,26.47,0,0,1-.59,5.93,25.16,25.16,0,0,1,.59,5.92,26.47,26.47,0,0,1-.59,5.93H86.5A25.86,25.86,0,0,1,85.9,99.57Z"/><path class="cls-1" d="M160.55,141a24.67,24.67,0,0,1,.6,5.93,25.76,25.76,0,0,1-.6,5.92H148.7a26.38,26.38,0,0,1-.59-5.92,25.25,25.25,0,0,1,.59-5.93h-4.44a26.38,26.38,0,0,1-.59-5.92,25.25,25.25,0,0,1,.59-5.93h-4.44a25.75,25.75,0,0,1-.59-5.92,24.73,24.73,0,0,1,.59-5.93H125a25.25,25.25,0,0,1,.59,5.93,26.31,26.31,0,0,1-.59,5.92,25.25,25.25,0,0,1,.59,5.93A26.38,26.38,0,0,1,125,141a25.25,25.25,0,0,1,.59,5.93,26.38,26.38,0,0,1-.59,5.92H113.16a25.76,25.76,0,0,1-.6-5.92,24.67,24.67,0,0,1,.6-5.93,25.76,25.76,0,0,1-.6-5.92,24.67,24.67,0,0,1,.6-5.93,25.7,25.7,0,0,1-.6-5.92,24.67,24.67,0,0,1,.6-5.93,25.7,25.7,0,0,1-.6-5.92,24.58,24.58,0,0,1,.6-5.92,25.86,25.86,0,0,1-.6-5.93,24.58,24.58,0,0,1,.6-5.92,25.86,25.86,0,0,1-.6-5.93,24.58,24.58,0,0,1,.6-5.92,25.79,25.79,0,0,1-.6-5.93,24.58,24.58,0,0,1,.6-5.92h41.47a25.16,25.16,0,0,1,.59,5.92,26.41,26.41,0,0,1-.59,5.93h5.92a24.58,24.58,0,0,1,.6,5.92,25.86,25.86,0,0,1-.6,5.93h-3a25.16,25.16,0,0,1,.59,5.92,26.47,26.47,0,0,1-.59,5.93H148.7a24.58,24.58,0,0,1,.6,5.92,25.7,25.7,0,0,1-.6,5.92h3a25.25,25.25,0,0,1,.59,5.93,26.31,26.31,0,0,1-.59,5.92h4.44a25.25,25.25,0,0,1,.59,5.93,26.38,26.38,0,0,1-.59,5.92Zm-15.4-41.47a25.16,25.16,0,0,1,.59-5.92,26.47,26.47,0,0,1-.59-5.93,25.16,25.16,0,0,1,.59-5.92H125a25.16,25.16,0,0,1,.59,5.92,26.47,26.47,0,0,1-.59,5.93,25.16,25.16,0,0,1,.59,5.92,26.47,26.47,0,0,1-.59,5.93h20.73A26.47,26.47,0,0,1,145.15,99.57Z"/><path class="cls-1" d="M220.39,111.42a26.31,26.31,0,0,1-.59,5.92,25.25,25.25,0,0,1,.59,5.93,26.31,26.31,0,0,1-.59,5.92h-4.45a24.67,24.67,0,0,1,.6,5.93,25.76,25.76,0,0,1-.6,5.92H208a25.25,25.25,0,0,1,.59,5.93,26.38,26.38,0,0,1-.59,5.92h-23.7a25.81,25.81,0,0,1-.59-5.92,24.73,24.73,0,0,1,.59-5.93h-7.41a26.38,26.38,0,0,1-.59-5.92,25.25,25.25,0,0,1,.59-5.93H172.4a25.75,25.75,0,0,1-.59-5.92,24.73,24.73,0,0,1,.59-5.93,25.75,25.75,0,0,1-.59-5.92,24.64,24.64,0,0,1,.59-5.92,25.9,25.9,0,0,1-.59-5.93,24.64,24.64,0,0,1,.59-5.92h4.44a26.47,26.47,0,0,1-.59-5.93,25.16,25.16,0,0,1,.59-5.92h7.41a25.84,25.84,0,0,1-.59-5.93,24.64,24.64,0,0,1,.59-5.92H208a25.16,25.16,0,0,1,.59,5.92A26.41,26.41,0,0,1,208,81.8h7.4a24.58,24.58,0,0,1,.6,5.92,25.86,25.86,0,0,1-.6,5.93h4.45a25.16,25.16,0,0,1,.59,5.92,26.47,26.47,0,0,1-.59,5.93A25.16,25.16,0,0,1,220.39,111.42Zm-13,11.85a24.73,24.73,0,0,1,.59-5.93,25.75,25.75,0,0,1-.59-5.92,24.64,24.64,0,0,1,.59-5.92,25.9,25.9,0,0,1-.59-5.93,24.64,24.64,0,0,1,.59-5.92H203.5a26.47,26.47,0,0,1-.59-5.93,25.16,25.16,0,0,1,.59-5.92H188.69a24.58,24.58,0,0,1,.6,5.92,25.86,25.86,0,0,1-.6,5.93h-4.44a25.16,25.16,0,0,1,.59,5.92,26.47,26.47,0,0,1-.59,5.93,25.16,25.16,0,0,1,.59,5.92,26.31,26.31,0,0,1-.59,5.92,25.25,25.25,0,0,1,.59,5.93,26.31,26.31,0,0,1-.59,5.92h4.44a24.67,24.67,0,0,1,.6,5.93,25.76,25.76,0,0,1-.6,5.92H203.5a26.38,26.38,0,0,1-.59-5.92,25.25,25.25,0,0,1,.59-5.93H208A25.75,25.75,0,0,1,207.36,123.27Z"/><path class="cls-1" d="M279,141a24.73,24.73,0,0,1,.59,5.93,25.81,25.81,0,0,1-.59,5.92H267.19a26.38,26.38,0,0,1-.59-5.92,25.25,25.25,0,0,1,.59-5.93h-4.44a25.81,25.81,0,0,1-.59-5.92,24.73,24.73,0,0,1,.59-5.93h-4.44a25.7,25.7,0,0,1-.6-5.92,24.67,24.67,0,0,1,.6-5.93H243.5a25.25,25.25,0,0,1,.59,5.93,26.31,26.31,0,0,1-.59,5.92,25.25,25.25,0,0,1,.59,5.93,26.38,26.38,0,0,1-.59,5.92,25.25,25.25,0,0,1,.59,5.93,26.38,26.38,0,0,1-.59,5.92H231.65a25.76,25.76,0,0,1-.6-5.92,24.67,24.67,0,0,1,.6-5.93,25.76,25.76,0,0,1-.6-5.92,24.67,24.67,0,0,1,.6-5.93,25.7,25.7,0,0,1-.6-5.92,24.67,24.67,0,0,1,.6-5.93,25.7,25.7,0,0,1-.6-5.92,24.58,24.58,0,0,1,.6-5.92,25.86,25.86,0,0,1-.6-5.93,24.58,24.58,0,0,1,.6-5.92,25.86,25.86,0,0,1-.6-5.93,24.58,24.58,0,0,1,.6-5.92,25.79,25.79,0,0,1-.6-5.93,24.58,24.58,0,0,1,.6-5.92h41.47a25.16,25.16,0,0,1,.59,5.92,26.41,26.41,0,0,1-.59,5.93H279a24.64,24.64,0,0,1,.59,5.92,25.9,25.9,0,0,1-.59,5.93h-3a25.16,25.16,0,0,1,.59,5.92,26.47,26.47,0,0,1-.59,5.93h-8.89a24.58,24.58,0,0,1,.6,5.92,25.7,25.7,0,0,1-.6,5.92h3a25.25,25.25,0,0,1,.59,5.93,26.31,26.31,0,0,1-.59,5.92h4.44a25.25,25.25,0,0,1,.59,5.93,26.38,26.38,0,0,1-.59,5.92Zm-15.4-41.47a25.16,25.16,0,0,1,.59-5.92,26.47,26.47,0,0,1-.59-5.93,25.16,25.16,0,0,1,.59-5.92H243.5a25.16,25.16,0,0,1,.59,5.92,26.47,26.47,0,0,1-.59,5.93,25.16,25.16,0,0,1,.59,5.92,26.47,26.47,0,0,1-.59,5.93h20.73A26.47,26.47,0,0,1,263.64,99.57Z"/></g></g></svg>