<svg xmlns="http://www.w3.org/2000/svg" width="20.05" height="15.08" viewBox="0 0 20.05 15.08"><defs><style>.cls-1{fill:#fff;}</style></defs><title>email</title><g id="Layer_2" data-name="Layer 2"><g id="Layer_1-2" data-name="Layer 1"><path class="cls-1" d="M20,.73A.58.58,0,0,0,20,.47h0l0,0a.63.63,0,0,0-.13-.2l-.05,0-.16-.1-.07,0a.75.75,0,0,0-.26,0H.75A.75.75,0,0,0,.49.05L.42.09.26.19.2.24a.86.86,0,0,0-.13.2s0,0,0,0h0A.75.75,0,0,0,0,.73s0,0,0,0V14.33a.75.75,0,0,0,.75.75H19.3a.75.75,0,0,0,.75-.75V.75A0,0,0,0,0,20,.73ZM7.26,8.13,9.5,10.31a.75.75,0,0,0,.52.21.77.77,0,0,0,.53-.21l2.24-2.18,5.56,5.45H1.69ZM1.5,11.67V2.53L6.18,7.08ZM13.86,7.08l4.69-4.55v9.14ZM17.45,1.5,10,8.73,2.6,1.5Z"/></g></g></svg>