<svg xmlns="http://www.w3.org/2000/svg" width="126.85" height="42.26" viewBox="0 0 126.85 42.26"><defs><style>.cls-1{fill:#fff;}</style></defs><title>logo_k</title><g id="Layer_2" data-name="Layer 2"><g id="Layer_1-2" data-name="Layer 1"><path class="cls-1" d="M.31,20.16a2,2,0,0,1,2.05-2,2,2,0,0,1,2.07,2v8.27H7.18l5-9.25a2.16,2.16,0,0,1,1.76-1.06,1.94,1.94,0,0,1,2,2,2.7,2.7,0,0,1-.39,1.3L10.69,30,16,39a2.74,2.74,0,0,1,.46,1.3,2,2,0,0,1-2.08,2,2.18,2.18,0,0,1-1.76-1.06L7.28,32H4.43v8.27a2,2,0,0,1-2.07,2,2,2,0,0,1-2-2Z"/><path class="cls-1" d="M27.82,24.45c0-1.58-.63-2.95-3.17-2.95a7.2,7.2,0,0,0-2.14.35,8.39,8.39,0,0,1-2,.42,1.58,1.58,0,0,1-1.65-1.65c0-.56.31-1.06,1.12-1.51a12.87,12.87,0,0,1,5-1c5.8,0,6.89,3.59,6.89,6.33v6A29.32,29.32,0,0,0,32.29,34a1.88,1.88,0,0,1-3.66.6l-.21-.84A7.24,7.24,0,0,1,23.18,36c-3.42,0-5.56-2.22-5.56-5.24,0-3.28,2.6-5.14,6.89-5.14h3.31Zm0,4H24.65c-2,0-3.06.74-3.06,2.11s1,2.15,2.61,2.15a5.58,5.58,0,0,0,3.62-1.55Z"/><path class="cls-1" d="M36.7,32.3h2.5V21.89H36.77a1.67,1.67,0,0,1-1.68-1.69,1.7,1.7,0,0,1,1.68-1.73h4a1.41,1.41,0,0,1,1.33,1.09l.21.92a12.06,12.06,0,0,1,6.58-2.36A1.86,1.86,0,0,1,51,19.74l.35,4a1.74,1.74,0,0,1-3.45.38l-.35-2.32a11,11,0,0,0-4.25,1.79V32.3h3.09a1.69,1.69,0,0,1,0,3.38H36.7A1.7,1.7,0,0,1,35,34,1.63,1.63,0,0,1,36.7,32.3"/><path class="cls-1" d="M55,32.3h2.64V21.89H55a1.67,1.67,0,0,1-1.69-1.69A1.7,1.7,0,0,1,55,18.47h5a1.7,1.7,0,0,1,1.69,1.73V32.3h2.68a1.69,1.69,0,0,1,0,3.38H55a1.69,1.69,0,0,1,0-3.38"/><path class="cls-1" d="M72.35,23.08c0,1.41,1.58,1.9,3.59,2.5,2.6.77,5.8,1.83,5.8,5.24S78.51,36,74.88,36a15.71,15.71,0,0,1-5.56-1c-.8-.38-1.26-.88-1.26-1.58a1.62,1.62,0,0,1,1.69-1.69,9.43,9.43,0,0,1,2.11.53,10.05,10.05,0,0,0,3,.56c1.8,0,2.78-.84,2.78-1.86,0-1.27-1.4-1.76-3.55-2.39S68.27,27,68.27,23.29c0-3.45,3.27-5.17,6.44-5.17A13.83,13.83,0,0,1,80,19.21a1.88,1.88,0,0,1,1.23,1.66,1.49,1.49,0,0,1-1.55,1.54,7,7,0,0,1-1.89-.52A7.56,7.56,0,0,0,75,21.32c-1.83,0-2.6.78-2.6,1.76"/><path class="cls-1" d="M85.17,23.61a32,32,0,0,0-.42-3.38,1.77,1.77,0,0,1,1.82-1.93,1.72,1.72,0,0,1,1.87,1.26l.21.85a7,7,0,0,1,4.72-2.29A5.44,5.44,0,0,1,98,20.41a7.63,7.63,0,0,1,5.17-2.29c3.66,0,5.91,2.22,5.91,6.12v9.61a2,2,0,0,1-2,2,2,2,0,0,1-2-2V24.74c0-2-.81-3.24-2.57-3.24A5.57,5.57,0,0,0,99,23a11.65,11.65,0,0,1,.18,2.46v8.41a2,2,0,0,1-4.09,0V24.74c0-2-.73-3.24-2.56-3.24A5.51,5.51,0,0,0,89.25,23V33.85a2,2,0,0,1-4.08,0Z"/><path class="cls-1" d="M122.38,24.45c0-1.58-.63-2.95-3.17-2.95a7.2,7.2,0,0,0-2.14.35,8.39,8.39,0,0,1-2,.42,1.58,1.58,0,0,1-1.65-1.65c0-.56.31-1.06,1.12-1.51a12.87,12.87,0,0,1,5-1c5.8,0,6.89,3.59,6.89,6.33v6a29.32,29.32,0,0,0,.39,3.55,1.88,1.88,0,0,1-3.66.6l-.21-.84A7.26,7.26,0,0,1,117.73,36c-3.41,0-5.55-2.22-5.55-5.24,0-3.28,2.6-5.14,6.89-5.14h3.31Zm0,4h-3.17c-2,0-3.06.74-3.06,2.11s1,2.15,2.61,2.15a5.58,5.58,0,0,0,3.62-1.55Z"/><path class="cls-1" d="M0,2.05a.92.92,0,0,1,.93-.93H6.46a.83.83,0,1,1,0,1.65H1.88v3.8H5.43a.82.82,0,0,1,.82.82.84.84,0,0,1-.82.83H1.88v4.54a.93.93,0,0,1-.95.93A.92.92,0,0,1,0,12.76Z"/><path class="cls-1" d="M14,5.36a.91.91,0,0,1,.93-.93.92.92,0,0,1,.93.93v5.75A15.42,15.42,0,0,0,16,12.8a.8.8,0,0,1-.84.89.84.84,0,0,1-.84-.59l-.12-.52a4,4,0,0,1-2.78,1.19c-1.8,0-3-.93-3-3.45v-5a.92.92,0,0,1,.93-.93.91.91,0,0,1,.93.93v5c0,1.36.56,1.92,1.68,1.92a3.47,3.47,0,0,0,2-.91Z"/><path class="cls-1" d="M18.58,7a14.94,14.94,0,0,0-.21-1.69.81.81,0,0,1,.84-.87.79.79,0,0,1,.84.59l.13.5a4.12,4.12,0,0,1,2.64-1.19c1.91,0,3.16.93,3.16,3.45v5a.92.92,0,0,1-.93.93.91.91,0,0,1-.93-.93v-5c0-1.36-.54-1.9-1.67-1.9a3.45,3.45,0,0,0-2,.89v6a.92.92,0,0,1-.93.93.91.91,0,0,1-.93-.93Z"/><path class="cls-1" d="M34.06,1.08A.91.91,0,0,1,35,.15a.92.92,0,0,1,.93.93v10a14.68,14.68,0,0,0,.2,1.69.86.86,0,0,1-1.69.28l-.11-.5a4,4,0,0,1-2.64,1.19c-2.07,0-3.54-1.62-3.54-4.71,0-2.81,1.34-4.71,4.11-4.71a4.71,4.71,0,0,1,1.81.45Zm0,5.24a4.07,4.07,0,0,0-1.79-.42C30.63,5.9,30,7.16,30,9.06s.63,3.18,2,3.18a3.17,3.17,0,0,0,2-.91Z"/><path class="cls-1" d="M43.39,7.61c0-1-.41-1.71-1.83-1.71a3.82,3.82,0,0,0-1.24.22,4,4,0,0,1-1,.22.73.73,0,0,1-.76-.76c0-.3.18-.52.57-.73a6.66,6.66,0,0,1,2.55-.5c2.85,0,3.54,1.73,3.54,3.26V11a14.62,14.62,0,0,0,.18,1.81.79.79,0,0,1-.82.85.81.81,0,0,1-.85-.59l-.11-.51a4,4,0,0,1-2.79,1.18,2.67,2.67,0,0,1-2.92-2.72c0-1.69,1.33-2.68,3.55-2.68h1.9Zm0,2.06H41.54c-1.15,0-1.78.45-1.78,1.27s.58,1.3,1.52,1.3a3.27,3.27,0,0,0,2.11-.91Z"/><path class="cls-1" d="M52.87,6.21a2.94,2.94,0,0,0-1.28-.31c-1.6,0-2.33,1.23-2.33,3.16s.73,3.18,2.33,3.18A5.22,5.22,0,0,0,53,12a5.12,5.12,0,0,1,1-.24.69.69,0,0,1,.73.72.86.86,0,0,1-.6.78,6.82,6.82,0,0,1-2.47.51c-2.77,0-4.19-2-4.19-4.71,0-2.94,1.53-4.71,4.19-4.71A4.59,4.59,0,0,1,53.93,5a1.19,1.19,0,0,1,.62,1.07l.09.75c0,.65-.28,1.08-.82,1.08A.87.87,0,0,1,53,7.05Z"/><path class="cls-1" d="M57,12h1.51V6.1H57a.75.75,0,0,1-.76-.78A.76.76,0,0,1,57,4.54h2.55a.78.78,0,0,1,.78.8V12h1.52a.77.77,0,1,1,0,1.54H57A.77.77,0,0,1,57,12"/><path class="cls-1" d="M57.82,1.92A1.21,1.21,0,1,1,59,3.13a1.21,1.21,0,0,1-1.21-1.21"/><path class="cls-1" d="M67.72,4.35c2.6,0,4.09,2,4.09,4.71s-1.45,4.71-4.09,4.71-4.12-2-4.12-4.71,1.49-4.71,4.12-4.71M70,9.06c0-1.92-.86-3.16-2.23-3.16s-2.24,1.24-2.24,3.16.86,3.18,2.24,3.18S70,11,70,9.06M66.36,2.79a.76.76,0,0,1,.3-.63L68.52.3a.85.85,0,0,1,.59-.3A.86.86,0,0,1,70,.85a.85.85,0,0,1-.38.64l-2,1.71a.89.89,0,0,1-.61.24.68.68,0,0,1-.69-.65"/><path class="cls-1" d="M74,7a14.94,14.94,0,0,0-.21-1.69.81.81,0,0,1,.84-.87A.79.79,0,0,1,75.5,5l.13.5a4.1,4.1,0,0,1,2.64-1.19c1.91,0,3.16.93,3.16,3.45v5a.92.92,0,0,1-.93.93.91.91,0,0,1-.93-.93v-5c0-1.36-.54-1.9-1.67-1.9a3.45,3.45,0,0,0-2,.89v6a.92.92,0,0,1-.93.93.91.91,0,0,1-.93-.93Z"/></g></g></svg>